# xmcd
#
# Track frame offsets:
#	150
#	14396
#	31074
#	46203
#	62535
#	79049
#	95415
#	114025
#	129593
#	150213
#	168412
#	185508
#	203934
#	221085
#	237613
#	255492
#	270594
#	285260
#	300484
#	315057
#	331353
#
# Disc length: 4622 seconds
#
# Revision: 0
# Processed by: cddbd v1.5.2PL0 Copyright (c) Steve Scherf et al.
# Submitted via: EZCDAudioConverter 6.0.0.1
#
DISCID=08120c15
DTITLE=Jay Sean - My Own Way (Deluxe Edition)
DYEAR=2009
DGENRE=Hip Hop, Funk - Soul, Folk, World, and Country
TTITLE0=Ride it
TTITLE1=Tonight
TTITLE2=Maybe (JRemy and BobbyBass Album Ver.)
TTITLE3=I Won't Tell (Feat.Sway)
TTITLE4=Stay
TTITLE5=Stuck In The Middle
TTITLE6=All Or Nothing
TTITLE7=Never Been In Love
TTITLE8=Cry
TTITLE9=Good Enough
TTITLE10=Used To Love Her
TTITLE11=Waiting
TTITLE12=Runaway
TTITLE13=Just A Friend
TTITLE14=Murder
TTITLE15=Easy As 1, 2, 3
TTITLE16=I'm Gone (Acoustic Ver.)
TTITLE17=Ride it (Ishi Hip hop Remix)
TTITLE18=Maybe (Panjabi Hit Squad Remix)
TTITLE19=Stay (Boy Better Know Remix)
TTITLE20=Tonight (FP Radio Edit)
EXTD=
EXTT0=
EXTT1=
EXTT2=
EXTT3=
EXTT4=
EXTT5=
EXTT6=
EXTT7=
EXTT8=
EXTT9=
EXTT10=
EXTT11=
EXTT12=
EXTT13=
EXTT14=
EXTT15=
EXTT16=
EXTT17=
EXTT18=
EXTT19=
EXTT20=
PLAYORDER=
